<svg width="133" height="32" viewBox="0 0 133 32" fill="none" xmlns="http://www.w3.org/2000/svg">
<path fill-rule="evenodd" clip-rule="evenodd" d="M22.2466 9.06343H2.47185V28.8382H22.2466V9.06343ZM0 6.59158V31.31H24.7185V6.59158H0Z" fill="url(#paint0_linear_90_2720)"/>
<path fill-rule="evenodd" clip-rule="evenodd" d="M34.606 2.47185H14.8312V9.06344H12.3593V2.47185V0H14.8312H34.606H37.0778V2.47185V22.2466V24.7185H34.606H26.3665V22.2466H34.606V2.47185ZM24.7186 22.2466H14.8312V10.7113H12.3593V22.2466V24.7185H14.8312H24.7186V22.2466Z" fill="url(#paint1_linear_90_2720)"/>
<path d="M52.7977 17.664V15.264H56.9977C57.5737 15.264 58.0777 15.152 58.5097 14.928C58.9577 14.688 59.3097 14.36 59.5657 13.944C59.8217 13.512 59.9497 13.008 59.9497 12.432C59.9497 11.856 59.8217 11.36 59.5657 10.944C59.3097 10.512 58.9577 10.184 58.5097 9.96C58.0777 9.72 57.5737 9.6 56.9977 9.6H52.7977V7.2H57.1417C58.1977 7.2 59.1417 7.416 59.9737 7.848C60.8217 8.28 61.4857 8.888 61.9657 9.672C62.4617 10.456 62.7097 11.376 62.7097 12.432C62.7097 13.488 62.4617 14.408 61.9657 15.192C61.4857 15.976 60.8217 16.584 59.9737 17.016C59.1417 17.448 58.1977 17.664 57.1417 17.664H52.7977ZM50.9017 24V7.2H53.6617V24H50.9017ZM69.2641 24.24C68.2241 24.24 67.2801 23.976 66.4321 23.448C65.6001 22.92 64.9361 22.208 64.4401 21.312C63.9601 20.4 63.7201 19.384 63.7201 18.264C63.7201 17.128 63.9601 16.112 64.4401 15.216C64.9361 14.304 65.6001 13.584 66.4321 13.056C67.2801 12.512 68.2241 12.24 69.2641 12.24C70.1441 12.24 70.9201 12.432 71.5921 12.816C72.2801 13.184 72.8241 13.696 73.2241 14.352C73.6241 15.008 73.8241 15.752 73.8241 16.584V19.896C73.8241 20.728 73.6241 21.472 73.2241 22.128C72.8401 22.784 72.3041 23.304 71.6161 23.688C70.9281 24.056 70.1441 24.24 69.2641 24.24ZM69.6961 21.744C70.6721 21.744 71.4561 21.416 72.0481 20.76C72.6561 20.104 72.9601 19.264 72.9601 18.24C72.9601 17.552 72.8241 16.944 72.5521 16.416C72.2801 15.888 71.8961 15.48 71.4001 15.192C70.9201 14.888 70.3521 14.736 69.6961 14.736C69.0561 14.736 68.4881 14.888 67.9921 15.192C67.5121 15.48 67.1281 15.888 66.8401 16.416C66.5681 16.944 66.4321 17.552 66.4321 18.24C66.4321 18.928 66.5681 19.536 66.8401 20.064C67.1281 20.592 67.5121 21.008 67.9921 21.312C68.4881 21.6 69.0561 21.744 69.6961 21.744ZM72.7921 24V20.904L73.2481 18.096L72.7921 15.312V12.48H75.4321V24H72.7921ZM83.666 24.24C82.53 24.24 81.498 23.976 80.57 23.448C79.658 22.92 78.938 22.2 78.41 21.288C77.882 20.376 77.618 19.36 77.618 18.24C77.618 17.104 77.882 16.088 78.41 15.192C78.938 14.28 79.658 13.56 80.57 13.032C81.498 12.504 82.53 12.24 83.666 12.24C84.562 12.24 85.394 12.416 86.162 12.768C86.946 13.104 87.61 13.592 88.154 14.232L86.426 15.984C86.09 15.584 85.682 15.288 85.202 15.096C84.738 14.888 84.226 14.784 83.666 14.784C83.01 14.784 82.426 14.936 81.914 15.24C81.418 15.528 81.026 15.928 80.738 16.44C80.466 16.952 80.33 17.552 80.33 18.24C80.33 18.912 80.466 19.512 80.738 20.04C81.026 20.552 81.418 20.96 81.914 21.264C82.426 21.552 83.01 21.696 83.666 21.696C84.226 21.696 84.738 21.6 85.202 21.408C85.682 21.2 86.09 20.896 86.426 20.496L88.154 22.248C87.61 22.888 86.946 23.384 86.162 23.736C85.394 24.072 84.562 24.24 83.666 24.24ZM97.3773 24L92.5053 18.12L97.3533 12.48H100.497L94.9293 18.816L95.0493 17.304L100.737 24H97.3773ZM90.0573 24V6.72H92.6973V24H90.0573ZM107.081 24.24C105.929 24.24 104.889 23.984 103.961 23.472C103.049 22.944 102.321 22.224 101.777 21.312C101.249 20.4 100.985 19.376 100.985 18.24C100.985 17.104 101.249 16.088 101.777 15.192C102.305 14.28 103.017 13.56 103.913 13.032C104.825 12.504 105.833 12.24 106.937 12.24C108.009 12.24 108.953 12.488 109.769 12.984C110.601 13.48 111.249 14.16 111.713 15.024C112.193 15.888 112.433 16.872 112.433 17.976C112.433 18.168 112.417 18.368 112.385 18.576C112.369 18.768 112.337 18.984 112.289 19.224H102.833V17.064H110.921L109.937 17.928C109.905 17.224 109.769 16.632 109.529 16.152C109.289 15.672 108.945 15.304 108.497 15.048C108.065 14.792 107.529 14.664 106.889 14.664C106.217 14.664 105.633 14.808 105.137 15.096C104.641 15.384 104.257 15.792 103.985 16.32C103.713 16.832 103.577 17.448 103.577 18.168C103.577 18.888 103.721 19.52 104.009 20.064C104.297 20.608 104.705 21.032 105.233 21.336C105.761 21.624 106.369 21.768 107.057 21.768C107.649 21.768 108.193 21.664 108.689 21.456C109.201 21.248 109.633 20.944 109.985 20.544L111.665 22.248C111.105 22.904 110.425 23.4 109.625 23.736C108.825 24.072 107.977 24.24 107.081 24.24ZM115.997 24V7.68H118.637V24H115.997ZM113.237 14.88V12.48H121.397V14.88H113.237ZM126.849 24.24C126.209 24.24 125.593 24.16 125.001 24C124.409 23.824 123.865 23.584 123.369 23.28C122.873 22.96 122.441 22.576 122.073 22.128L123.753 20.448C124.153 20.912 124.609 21.264 125.121 21.504C125.649 21.728 126.241 21.84 126.897 21.84C127.489 21.84 127.937 21.752 128.241 21.576C128.545 21.4 128.697 21.144 128.697 20.808C128.697 20.456 128.553 20.184 128.265 19.992C127.977 19.8 127.601 19.64 127.137 19.512C126.689 19.368 126.209 19.224 125.697 19.08C125.201 18.936 124.721 18.744 124.257 18.504C123.809 18.248 123.441 17.904 123.153 17.472C122.865 17.04 122.721 16.48 122.721 15.792C122.721 15.056 122.889 14.424 123.225 13.896C123.577 13.368 124.065 12.96 124.689 12.672C125.329 12.384 126.089 12.24 126.969 12.24C127.897 12.24 128.713 12.408 129.417 12.744C130.137 13.064 130.737 13.552 131.217 14.208L129.537 15.888C129.201 15.472 128.817 15.16 128.385 14.952C127.953 14.744 127.457 14.64 126.897 14.64C126.369 14.64 125.961 14.72 125.673 14.88C125.385 15.04 125.241 15.272 125.241 15.576C125.241 15.896 125.385 16.144 125.673 16.32C125.961 16.496 126.329 16.648 126.777 16.776C127.241 16.904 127.721 17.048 128.217 17.208C128.729 17.352 129.209 17.56 129.657 17.832C130.121 18.088 130.497 18.44 130.785 18.888C131.073 19.32 131.217 19.888 131.217 20.592C131.217 21.712 130.825 22.6 130.041 23.256C129.257 23.912 128.193 24.24 126.849 24.24Z" fill="url(#paint2_linear_90_2720)"/>
<defs>
<linearGradient id="paint0_linear_90_2720" x1="12.3592" y1="6.59158" x2="12.3592" y2="31.31" gradientUnits="userSpaceOnUse">
<stop stop-color="#3A96AD"/>
<stop offset="1" stop-color="#5A82FC"/>
</linearGradient>
<linearGradient id="paint1_linear_90_2720" x1="24.7186" y1="0" x2="24.7186" y2="24.7185" gradientUnits="userSpaceOnUse">
<stop stop-color="#3A96AD"/>
<stop offset="1" stop-color="#5A82FC"/>
</linearGradient>
<linearGradient id="paint2_linear_90_2720" x1="90.5777" y1="0" x2="90.5777" y2="30" gradientUnits="userSpaceOnUse">
<stop stop-color="#3A96AD"/>
<stop offset="1" stop-color="#5A82FC"/>
</linearGradient>
</defs>
</svg>
