<svg width="24" height="25" viewBox="0 0 24 25" fill="none" xmlns="http://www.w3.org/2000/svg">
   <path d="M2 22.5H22" stroke="#07AB98" stroke-width="1.5" stroke-miterlimit="10" stroke-linecap="round" stroke-linejoin="round"/>
   <path d="M2.9502 22.5L3.00019 10.47C3.00019 9.85999 3.2902 9.28004 3.7702 8.90004L10.7702 3.45003C11.4902 2.89003 12.5002 2.89003 13.2302 3.45003L20.2302 8.89003C20.7202 9.27003 21.0002 9.84999 21.0002 10.47V22.5" stroke="#07AB98" stroke-width="1.5" stroke-miterlimit="10" stroke-linejoin="round"/>
   <path d="M13 17.5H11C10.17 17.5 9.5 18.17 9.5 19V22.5H14.5V19C14.5 18.17 13.83 17.5 13 17.5Z" stroke="#07AB98" stroke-width="1.5" stroke-miterlimit="10" stroke-linejoin="round"/>
   <path d="M9.5 14.25H7.5C6.95 14.25 6.5 13.8 6.5 13.25V11.75C6.5 11.2 6.95 10.75 7.5 10.75H9.5C10.05 10.75 10.5 11.2 10.5 11.75V13.25C10.5 13.8 10.05 14.25 9.5 14.25Z" stroke="#07AB98" stroke-width="1.5" stroke-miterlimit="10" stroke-linejoin="round"/>
   <path d="M16.5 14.25H14.5C13.95 14.25 13.5 13.8 13.5 13.25V11.75C13.5 11.2 13.95 10.75 14.5 10.75H16.5C17.05 10.75 17.5 11.2 17.5 11.75V13.25C17.5 13.8 17.05 14.25 16.5 14.25Z" stroke="#07AB98" stroke-width="1.5" stroke-miterlimit="10" stroke-linejoin="round"/>
   <path d="M19.0003 7.5L18.9703 4.5H14.5703" stroke="#07AB98" stroke-width="1.5" stroke-miterlimit="10" stroke-linecap="round" stroke-linejoin="round"/>
   </svg>
   