<svg width="26" height="26" viewBox="0 0 26 26" fill="none" xmlns="http://www.w3.org/2000/svg">
<path opacity="0.4" d="M22.2085 11.0395H19.0777C16.5102 11.0395 14.4193 8.94866 14.4193 6.38116V3.25033C14.4193 2.65449 13.9318 2.16699 13.336 2.16699H8.74266C5.406 2.16699 2.7085 4.33366 2.7085 8.20116V17.7995C2.7085 21.667 5.406 23.8337 8.74266 23.8337H17.2577C20.5943 23.8337 23.2918 21.667 23.2918 17.7995V12.1228C23.2918 11.527 22.8043 11.0395 22.2085 11.0395Z" fill="white"/>
<path d="M17.1167 2.39371C16.6725 1.94954 15.9033 2.25288 15.9033 2.87038V6.65121C15.9033 8.23288 17.2467 9.54371 18.8825 9.54371C19.9117 9.55455 21.3417 9.55454 22.5658 9.55454C23.1833 9.55454 23.5083 8.82871 23.075 8.39538C21.515 6.82454 18.72 3.99704 17.1167 2.39371Z" fill="white"/>
<path d="M12.4907 13.5095L10.3241 11.3428C10.3132 11.332 10.3024 11.332 10.3024 11.3212C10.2374 11.2562 10.1507 11.202 10.0641 11.1587C10.0532 11.1587 10.0532 11.1587 10.0424 11.1587C9.95573 11.1262 9.86906 11.1153 9.7824 11.1045C9.7499 11.1045 9.72823 11.1045 9.69573 11.1045C9.63073 11.1045 9.5549 11.1262 9.4899 11.1478C9.4574 11.1587 9.43573 11.1695 9.41406 11.1803C9.3274 11.2237 9.24073 11.267 9.17573 11.3428L7.00906 13.5095C6.6949 13.8237 6.6949 14.3437 7.00906 14.6578C7.32323 14.972 7.84323 14.972 8.1574 14.6578L8.9374 13.8778V18.417C8.9374 18.8612 9.30573 19.2295 9.7499 19.2295C10.1941 19.2295 10.5624 18.8612 10.5624 18.417V13.8778L11.3424 14.6578C11.5049 14.8203 11.7107 14.8962 11.9166 14.8962C12.1224 14.8962 12.3282 14.8203 12.4907 14.6578C12.8049 14.3437 12.8049 13.8237 12.4907 13.5095Z" fill="white"/>
</svg>
